<svg xmlns="http://www.w3.org/2000/svg" xmlns:xlink="http://www.w3.org/1999/xlink" viewBox="0 0 443.02 119.5"><defs><style>.cls-1{isolation:isolate;}.cls-2{fill:url(#linear-gradient);}.cls-10,.cls-11,.cls-3,.cls-4{opacity:0.63;mix-blend-mode:multiply;}.cls-3{fill:url(#linear-gradient-2);}.cls-4{fill:url(#linear-gradient-3);}.cls-14,.cls-5,.cls-7{opacity:0.48;}.cls-5{fill:url(#linear-gradient-4);}.cls-6{fill:url(#linear-gradient-5);}.cls-7{fill:url(#linear-gradient-6);}.cls-8{fill:#fff;}.cls-9{fill:url(#linear-gradient-7);}.cls-10{fill:url(#linear-gradient-8);}.cls-11{fill:url(#linear-gradient-9);}.cls-12{opacity:0.7;mix-blend-mode:overlay;fill:url(#linear-gradient-10);}.cls-13{fill:url(#linear-gradient-11);}.cls-14{fill:url(#linear-gradient-12);}.cls-15{font-size:44.11px;fill:#f1cb30;font-family:Poppins-ExtraBold, Poppins;font-weight:800;}.cls-16{fill:#5c1cb2;}</style><linearGradient id="linear-gradient" x1="134.14" y1="5.43" x2="134.14" y2="103.88" gradientUnits="userSpaceOnUse"><stop offset="0.01" stop-color="#ff00c1"/><stop offset="0.43" stop-color="#d41bd3"/><stop offset="1" stop-color="#9d3deb"/></linearGradient><linearGradient id="linear-gradient-2" x1="104.01" y1="85.17" x2="142.36" y2="41.35" gradientUnits="userSpaceOnUse"><stop offset="0" stop-color="#fff" stop-opacity="0"/><stop offset="1" stop-color="#727d8d"/></linearGradient><linearGradient id="linear-gradient-3" x1="136.35" y1="71.78" x2="123.71" y2="128.36" xlink:href="#linear-gradient-2"/><linearGradient id="linear-gradient-4" x1="135.3" y1="25.85" x2="144.33" y2="78.66" gradientUnits="userSpaceOnUse"><stop offset="0" stop-color="#fff"/><stop offset="1" stop-color="#fff" stop-opacity="0"/></linearGradient><linearGradient id="linear-gradient-5" x1="142.05" y1="2.71" x2="129.68" y2="34.75" xlink:href="#linear-gradient"/><linearGradient id="linear-gradient-6" x1="137.88" y1="12.66" x2="130.62" y2="33.1" xlink:href="#linear-gradient-4"/><linearGradient id="linear-gradient-7" x1="85.12" y1="119.91" x2="46.07" y2="52.27" gradientUnits="userSpaceOnUse"><stop offset="0" stop-color="#ff9429"/><stop offset="1" stop-color="#f4d63b"/></linearGradient><linearGradient id="linear-gradient-8" x1="544.11" y1="85.17" x2="582.46" y2="41.35" gradientTransform="matrix(-1, 0, 0, 1, 624.28, 0)" gradientUnits="userSpaceOnUse"><stop offset="0" stop-color="#fff" stop-opacity="0"/><stop offset="1" stop-color="#c4483a"/></linearGradient><linearGradient id="linear-gradient-9" x1="576.45" y1="71.78" x2="563.81" y2="128.36" xlink:href="#linear-gradient-8"/><linearGradient id="linear-gradient-10" x1="575.24" y1="36.61" x2="587.3" y2="80.5" gradientTransform="matrix(-1, 0, 0, 1, 624.28, 0)" xlink:href="#linear-gradient-4"/><linearGradient id="linear-gradient-11" x1="585.25" y1="42.63" x2="568.08" y2="12.88" gradientTransform="matrix(-1, 0, 0, 1, 624.28, 0)" xlink:href="#linear-gradient-7"/><linearGradient id="linear-gradient-12" x1="55.85" y1="8.14" x2="46.64" y2="32.66" xlink:href="#linear-gradient-4"/></defs><g class="cls-1"><g id="TEXTS"><path class="cls-2" d="M176.19,82.71a34.08,34.08,0,0,1-34,34h-16a34.08,34.08,0,0,1-34-34V77.84a8.6,8.6,0,1,1,17.19,0v4.87a16.88,16.88,0,0,0,16.85,16.85h16a16.85,16.85,0,0,0,0-33.7h-16a34.07,34.07,0,0,1-34-34v-3a8.6,8.6,0,1,1,17.19,0v3a16.86,16.86,0,0,0,16.85,16.84h16A34.08,34.08,0,0,1,176.19,82.71Z"/><path class="cls-3" d="M126.13,65.87h16a16.84,16.84,0,1,1,0,33.68h-16a16.86,16.86,0,0,1-16.85-16.84V77.84A8.59,8.59,0,0,0,105,70.4V82.71a21.17,21.17,0,0,0,21.15,21.14h16a21.14,21.14,0,0,0,0-42.28h-16A29.77,29.77,0,0,1,96.39,31.83V21.36a8.59,8.59,0,0,0-4.3,7.44v3A34.08,34.08,0,0,0,126.13,65.87Z"/><path class="cls-4" d="M142.15,48.67h-16a16.86,16.86,0,0,1-16.85-16.84v-3a8.59,8.59,0,0,0-4.3-7.44V31.83A21.17,21.17,0,0,0,126.13,53h16a29.74,29.74,0,0,1,0,59.48h-16A29.77,29.77,0,0,1,96.39,82.71V70.4a8.59,8.59,0,0,0-4.3,7.44v4.87a34.08,34.08,0,0,0,34,34h16a34,34,0,0,0,0-68.08Z"/><path class="cls-5" d="M142.15,48.67h-16a16.86,16.86,0,0,1-16.85-16.84v-3a8.59,8.59,0,0,0-4.3-7.44V31.83A21.17,21.17,0,0,0,126.13,53h16a29.76,29.76,0,0,1,29.72,29.19h4.3A34.06,34.06,0,0,0,142.15,48.67Z"/><circle class="cls-6" cx="134.06" cy="23.41" r="14.69"/><path class="cls-7" d="M134.06,14.15a9.26,9.26,0,1,0,9.26,9.26A9.26,9.26,0,0,0,134.06,14.15Z"/><path class="cls-8" d="M149,109l-18.38-9.42h11.5a16.93,16.93,0,0,0,5.71-1Z"/><path class="cls-9" d="M25.18,82.71A16.86,16.86,0,0,0,42,99.56h16A16.88,16.88,0,0,0,74.9,82.71V77.84a8.6,8.6,0,1,1,17.19,0v4.87a34.08,34.08,0,0,1-34,34H42a34,34,0,0,1,0-68.08h16A16.86,16.86,0,0,0,74.9,31.83v-3a8.6,8.6,0,1,1,17.19,0v3a34.07,34.07,0,0,1-34,34H42A16.87,16.87,0,0,0,25.18,82.71Z"/><path class="cls-10" d="M58.05,65.87H42a16.84,16.84,0,1,0,0,33.68h16A16.85,16.85,0,0,0,74.89,82.71V77.84a8.61,8.61,0,0,1,4.3-7.44V82.71a21.16,21.16,0,0,1-21.14,21.14H42a21.14,21.14,0,0,1,0-42.28h16A29.77,29.77,0,0,0,87.79,31.83V21.36a8.59,8.59,0,0,1,4.3,7.44v3A34.08,34.08,0,0,1,58.05,65.87Z"/><path class="cls-11" d="M42,48.67h16A16.85,16.85,0,0,0,74.89,31.83v-3a8.61,8.61,0,0,1,4.3-7.44V31.83A21.16,21.16,0,0,1,58.05,53H42a29.74,29.74,0,0,0,0,59.48h16A29.77,29.77,0,0,0,87.79,82.71V70.4a8.59,8.59,0,0,1,4.3,7.44v4.87a34.08,34.08,0,0,1-34,34H42a34,34,0,0,1,0-68.08Z"/><path class="cls-12" d="M42,48.67h16A16.85,16.85,0,0,0,74.89,31.83v-3a8.61,8.61,0,0,1,4.3-7.44V31.83A21.16,21.16,0,0,1,58.05,53H42A29.77,29.77,0,0,0,12.3,82.16H8A34.07,34.07,0,0,1,42,48.67Z"/><circle class="cls-13" cx="50.12" cy="23.41" r="14.69"/><path class="cls-14" d="M40.85,23.41a9.27,9.27,0,1,0,9.27-9.26A9.26,9.26,0,0,0,40.85,23.41Z"/><path class="cls-8" d="M53.52,99.56,35.15,109l1.17-10.42a16.93,16.93,0,0,0,5.71,1Z"/><text class="cls-15" transform="translate(184.66 90.56) scale(1.01 1)">seminar<tspan class="cls-16" x="194.38" y="0">ku</tspan></text></g></g></svg>